# xmcd
#
# Track frame offsets:
#	150
#	20495
#	54805
#	66490
#	82462
#	104695
#	130761
#	154493
#	170357
#	194154
#	211862
#	232516
#	247424
#	268715
#	281474
#	300655
#
# Disc length: 4234 seconds
#
# Revision: 0
# Processed by: cddbd v1.4PL0 Copyright (c) Steve Scherf et al.
# Submitted via: EasyCDDAExtractor 5.0.4.1
#
DISCID=ee108810
DTITLE=Various Artist - The Best Of M.C. Records (1996-2002)
DYEAR=2003
DGENRE=Blues
TTITLE0=Big Jack Johnson And The Oilers - We Got To Stop This Killin'
TTITLE1=Kim Wilson - Oh Baby - Kim Wilson
TTITLE2=Odetta And Dr. John - Please Send Me Someone To Love
TTITLE3=RL Burnside - Hobo Blues
TTITLE4=Phillip Walker And The Big Band - Think
TTITLE5=Big Jack Johnson And The Oilers - Miss Magalee Hall
TTITLE6=Luther Guitar Jr. Johnson - What You've Been Putting Down
TTITLE7=Sleepy Labeef - Detour
TTITLE8=Big Jack Johnson - Cherry Tree
TTITLE9=Ann Rabson - Love Song (Ode To George)
TTITLE10=Odetta - Bourgeois Blues
TTITLE11=Joanna Connor - Different Kind Of War
TTITLE12=Wild Child Butler - Gracy Child
TTITLE13=RL Burnside - Can't Be Satisfied
TTITLE14=Big Jack Johnson With Kim Wilson - My Babe
TTITLE15=Maria Muldaur And Tracy Nelson - Up Above My Head
EXTD=
EXTT0=
EXTT1=
EXTT2=
EXTT3=
EXTT4=
EXTT5=
EXTT6=
EXTT7=
EXTT8=
EXTT9=
EXTT10=
EXTT11=
EXTT12=
EXTT13=
EXTT14=
EXTT15=
PLAYORDER=
